<svg id="Layer_1" data-name="Layer 1" xmlns="http://www.w3.org/2000/svg" xmlns:xlink="http://www.w3.org/1999/xlink" viewBox="0 0 821.03 230.99"><defs><style>.cls-1{fill:#fff;}.cls-2{fill:url(#linear-gradient);}.cls-3{fill:#ce1141;}.cls-4{fill:url(#linear-gradient-2);}.cls-5{fill:url(#linear-gradient-3);}.cls-6{fill:url(#linear-gradient-4);}.cls-7{fill:url(#linear-gradient-5);}</style><linearGradient id="linear-gradient" x1="133.94" y1="-13.15" x2="150.2" y2="243.93" gradientUnits="userSpaceOnUse"><stop offset="0" stop-color="#a67d3c"/><stop offset="0.2" stop-color="#f9d6a1"/><stop offset="0.27" stop-color="#f8dbaa"/><stop offset="0.39" stop-color="#f6e8c2"/><stop offset="0.39" stop-color="#f6e9c3"/><stop offset="0.43" stop-color="#f0e1bc" stop-opacity="0.68"/><stop offset="0.47" stop-color="#eadbb5" stop-opacity="0.41"/><stop offset="0.49" stop-color="#e8d8b3" stop-opacity="0.3"/><stop offset="0.59" stop-color="#f6e9c3"/><stop offset="0.61" stop-color="#f7e5bc"/><stop offset="0.69" stop-color="#f8daa8"/><stop offset="0.74" stop-color="#f9d6a1"/><stop offset="0.78" stop-color="#f2cf99"/><stop offset="0.83" stop-color="#e0bb83"/><stop offset="0.89" stop-color="#c39c5f"/><stop offset="0.95" stop-color="#a67d3c"/></linearGradient><linearGradient id="linear-gradient-2" x1="197.43" y1="160.81" x2="197.43" y2="66.68" gradientUnits="userSpaceOnUse"><stop offset="0" stop-color="#b08440" stop-opacity="0.46"/><stop offset="0.01" stop-color="#b98e4c" stop-opacity="0.53"/><stop offset="0.04" stop-color="#d0a76a" stop-opacity="0.69"/><stop offset="0.07" stop-color="#e2bc82" stop-opacity="0.83"/><stop offset="0.1" stop-color="#eeca93" stop-opacity="0.92"/><stop offset="0.12" stop-color="#f6d39d" stop-opacity="0.98"/><stop offset="0.13" stop-color="#f9d6a1"/><stop offset="0.2" stop-color="#fadcaa"/><stop offset="0.32" stop-color="#fdeec2"/><stop offset="0.37" stop-color="#fef8cf"/><stop offset="0.43" stop-color="#fefbe4"/><stop offset="0.53" stop-color="#fff"/><stop offset="0.66" stop-color="#fef8cf"/><stop offset="0.71" stop-color="#fceabc"/><stop offset="0.79" stop-color="#fadba8"/><stop offset="0.84" stop-color="#f9d6a1"/><stop offset="0.86" stop-color="#f7d39d" stop-opacity="0.98"/><stop offset="0.89" stop-color="#f0cb93" stop-opacity="0.93"/><stop offset="0.91" stop-color="#e4bf81" stop-opacity="0.85"/><stop offset="0.95" stop-color="#d4ad68" stop-opacity="0.73"/><stop offset="0.98" stop-color="#c09649" stop-opacity="0.58"/><stop offset="1" stop-color="#b08431" stop-opacity="0.46"/></linearGradient><linearGradient id="linear-gradient-3" x1="155.14" y1="160.75" x2="155.14" y2="66.68" xlink:href="#linear-gradient-2"/><linearGradient id="linear-gradient-4" x1="119.99" y1="161.55" x2="119.99" y2="66.18" xlink:href="#linear-gradient-2"/><linearGradient id="linear-gradient-5" x1="79.21" y1="161.57" x2="79.21" y2="66.18" xlink:href="#linear-gradient-2"/></defs><title>Artboard 2 copy 3</title><rect class="cls-1" x="36.46" y="24.79" width="211.11" height="179.2"/><rect class="cls-1" x="45.34" y="33.38" width="193.39" height="6.56"/><rect class="cls-1" x="45.25" y="188.75" width="193.66" height="6.56"/><path class="cls-1" d="M223.39,70h-1.8v87.09h1.8v3.73H206.13v-3.73h4.36l0-80-14.88,83.38h-3.72L179.6,77.21V150.6c0,4.06-.37,6.65,3.91,6.52v3.73H171.46v-3.73c4.08.13,3.57-3.07,3.72-6.81V70.07h-3.25V66.71h16.74l9.45,60.44,9.39-60.38h15.88Zm-56.85.11h-7v86.73h7v3.91H143.73v-3.91h7V70.14h-7.08V66.71h22.87Zm-29.18,90.07H135l-2.59-6c-1.6,2.76-4.23,7.41-10,7.41-8,0-13.28-10-15.67-16.85-3.11-8.94-4.2-21.28-4.2-30.2,0-26.52,9.19-48.33,21.27-48.33,5.13,0,7.55,4.23,9,6.84l2.42-5.47h1.92V95h-1.92c-.81-7-1.82-15.37-5-20.88-1.71-3-3.81-4.86-6.43-4.86a7.12,7.12,0,0,0-5.32,2.9c-2.82,3.66-3.94,10-4.42,16.93-.41,5.51-.71,16.53-.71,26.52,0,4.73.11,9.44.19,14,.4,16.41,1.71,28.75,9.36,28.75,8.26,0,10.76-17.45,12.57-29.14h1.84Zm-40.77,0H94.24l-2.58-6c-1.62,2.76-4.24,7.38-10,7.38-7.93,0-13.26-10-15.65-16.84-3.1-8.92-4.21-21.26-4.21-30.2C61.81,88,71,66.2,83.08,66.2c5.13,0,7.57,4.23,9.06,6.84l2.4-5.47h1.95V95H94.54c-.79-7-1.8-15.35-5-20.88-1.71-3-3.83-4.86-6.44-4.86a7.13,7.13,0,0,0-5.32,2.9c-2.82,3.68-3.93,10-4.42,16.93-.41,5.53-.71,16.55-.71,26.54,0,4.73.08,9.46.19,14,.41,16.43,1.72,28.77,9.37,28.77,8.25,0,10.75-17.47,12.55-29.17h1.86ZM45.2,51.82v126.3H238.76V51.82Z"/><path class="cls-1" d="M223.4,70H221.6v87.09h1.79v3.72H206.14v-3.72h4.36l0-80L195.65,160.5h-3.72L179.61,77.18v73.4c0,4.06-.37,6.65,3.91,6.52v3.72H171.47v-3.72c4.09.13,3.57-3.07,3.72-6.82V70.05h-3.25V66.68h16.74l9.45,60.44,9.39-60.38H223.4Z"/><polygon class="cls-1" points="166.55 70.11 159.58 70.11 159.58 156.84 166.61 156.84 166.61 160.75 143.74 160.75 143.74 156.84 150.75 156.84 150.75 70.11 143.68 70.11 143.68 66.68 166.55 66.68 166.55 70.11"/><path class="cls-1" d="M137.37,160.18H135l-2.59-6c-1.6,2.76-4.23,7.4-10,7.4-8,0-13.28-10-15.67-16.85-3.1-8.94-4.19-21.28-4.19-30.2,0-26.52,9.19-48.33,21.27-48.33,5.13,0,7.55,4.23,9,6.83l2.42-5.47h1.93v27.4h-1.93c-.81-7-1.82-15.37-5-20.88-1.71-3-3.81-4.86-6.43-4.86a7.13,7.13,0,0,0-5.32,2.9c-2.82,3.66-3.93,10-4.42,16.93-.41,5.51-.71,16.53-.71,26.52,0,4.73.11,9.44.19,14.05.4,16.4,1.71,28.75,9.36,28.75,8.25,0,10.76-17.45,12.57-29.15h1.84Z"/><path class="cls-1" d="M96.6,160.22H94.25l-2.59-6c-1.63,2.76-4.23,7.38-10,7.38-7.94,0-13.26-10-15.65-16.85-3.1-8.91-4.21-21.26-4.21-30.2C61.82,88,71,66.18,83.09,66.18c5.13,0,7.57,4.23,9.06,6.83l2.4-5.47h1.95v27.4H94.55c-.79-7-1.79-15.35-5-20.88-1.71-3-3.83-4.86-6.43-4.86a7.11,7.11,0,0,0-5.32,2.9c-2.83,3.68-3.94,10-4.43,16.93-.41,5.53-.71,16.55-.71,26.54,0,4.74.08,9.46.19,14.05.4,16.42,1.71,28.77,9.36,28.77,8.26,0,10.76-17.48,12.55-29.17H96.6Z"/><rect class="cls-2" x="36.46" y="24.79" width="211.11" height="179.2"/><rect class="cls-3" x="45.34" y="33.38" width="193.39" height="6.56"/><rect class="cls-3" x="45.25" y="188.75" width="193.66" height="6.56"/><path class="cls-3" d="M223.39,70h-1.8v87.09h1.8v3.73H206.13v-3.73h4.36l0-80-14.88,83.38h-3.72L179.6,77.21V150.6c0,4.06-.37,6.65,3.91,6.52v3.73H171.46v-3.73c4.08.13,3.57-3.07,3.72-6.81V70.07h-3.25V66.71h16.74l9.45,60.44,9.39-60.38h15.88Zm-56.85.11h-7v86.73h7v3.91H143.73v-3.91h7V70.14h-7.08V66.71h22.87Zm-29.18,90.07H135l-2.59-6c-1.6,2.76-4.23,7.41-10,7.41-8,0-13.28-10-15.67-16.85-3.11-8.94-4.2-21.28-4.2-30.2,0-26.52,9.19-48.33,21.27-48.33,5.13,0,7.55,4.23,9,6.84l2.42-5.47h1.92V95h-1.92c-.81-7-1.82-15.37-5-20.88-1.71-3-3.81-4.86-6.43-4.86a7.12,7.12,0,0,0-5.32,2.9c-2.82,3.66-3.94,10-4.42,16.93-.41,5.51-.71,16.53-.71,26.52,0,4.73.11,9.44.19,14,.4,16.41,1.71,28.75,9.36,28.75,8.26,0,10.76-17.45,12.57-29.14h1.84Zm-40.77,0H94.24l-2.58-6c-1.62,2.76-4.24,7.38-10,7.38-7.93,0-13.26-10-15.65-16.84-3.1-8.92-4.21-21.26-4.21-30.2C61.81,88,71,66.2,83.08,66.2c5.13,0,7.57,4.23,9.06,6.84l2.4-5.47h1.95V95H94.54c-.79-7-1.8-15.35-5-20.88-1.71-3-3.83-4.86-6.44-4.86a7.13,7.13,0,0,0-5.32,2.9c-2.82,3.68-3.93,10-4.42,16.93-.41,5.53-.71,16.55-.71,26.54,0,4.73.08,9.46.19,14,.41,16.43,1.72,28.77,9.37,28.77,8.25,0,10.75-17.47,12.55-29.17h1.86ZM45.2,51.82v126.3H238.76V51.82Z"/><path class="cls-4" d="M223.4,70H221.6v87.09h1.79v3.72H206.14v-3.72h4.36l0-80L195.65,160.5h-3.72L179.61,77.18v73.4c0,4.06-.37,6.65,3.91,6.52v3.72H171.47v-3.72c4.09.13,3.57-3.07,3.72-6.82V70.05h-3.25V66.68h16.74l9.45,60.44,9.39-60.38H223.4Z"/><polygon class="cls-5" points="166.55 70.11 159.58 70.11 159.58 156.84 166.61 156.84 166.61 160.75 143.74 160.75 143.74 156.84 150.75 156.84 150.75 70.11 143.68 70.11 143.68 66.68 166.55 66.68 166.55 70.11"/><path class="cls-6" d="M137.37,160.18H135l-2.59-6c-1.6,2.76-4.23,7.4-10,7.4-8,0-13.28-10-15.67-16.85-3.1-8.94-4.19-21.28-4.19-30.2,0-26.52,9.19-48.33,21.27-48.33,5.13,0,7.55,4.23,9,6.83l2.42-5.47h1.93v27.4h-1.93c-.81-7-1.82-15.37-5-20.88-1.71-3-3.81-4.86-6.43-4.86a7.13,7.13,0,0,0-5.32,2.9c-2.82,3.66-3.93,10-4.42,16.93-.41,5.51-.71,16.53-.71,26.52,0,4.73.11,9.44.19,14.05.4,16.4,1.71,28.75,9.36,28.75,8.25,0,10.76-17.45,12.57-29.15h1.84Z"/><path class="cls-7" d="M96.6,160.22H94.25l-2.59-6c-1.63,2.76-4.23,7.38-10,7.38-7.94,0-13.26-10-15.65-16.85-3.1-8.91-4.21-21.26-4.21-30.2C61.82,88,71,66.18,83.09,66.18c5.13,0,7.57,4.23,9.06,6.83l2.4-5.47h1.95v27.4H94.55c-.79-7-1.79-15.35-5-20.88-1.71-3-3.83-4.86-6.43-4.86a7.11,7.11,0,0,0-5.32,2.9c-2.83,3.68-3.94,10-4.43,16.93-.41,5.53-.71,16.55-.71,26.54,0,4.74.08,9.46.19,14.05.4,16.42,1.71,28.77,9.36,28.77,8.26,0,10.76-17.48,12.55-29.17H96.6Z"/><path class="cls-1" d="M323.07,100.72c0-10-2-14.38-8.3-14.38-7,0-8.69,7-8.69,26.54,0,20.85,2.9,24.61,8.88,24.61,5,0,8.69-2.61,8.69-17.47h13.9c0,14.87-3.67,27.7-21.91,27.7-20.85,0-23.46-14.87-23.46-35.81s2.61-35.81,23.46-35.81c19.88,0,21.33,14.58,21.33,24.61Z"/><path class="cls-1" d="M374.9,100.72c0-10-2-14.38-8.3-14.38-7,0-8.69,7-8.69,26.54,0,20.85,2.9,24.61,8.88,24.61,5,0,8.69-2.61,8.69-17.47h13.9c0,14.87-3.67,27.7-21.91,27.7-20.85,0-23.46-14.87-23.46-35.81s2.61-35.81,23.46-35.81c19.88,0,21.33,14.58,21.33,24.61Z"/><path class="cls-1" d="M398,146.38V77.46h13.9v68.92Z"/><path class="cls-1" d="M422.48,77.46h20.66L453,126.11h.19l9.94-48.65h20.56v68.92H470.94v-55h-.19l-12.26,55H447.68l-12.26-55h-.19v55H422.48Z"/><path class="cls-1" d="M517.07,77.46h20.66l9.85,48.65h.19l9.94-48.65h20.56v68.92H565.53v-55h-.19l-12.26,55H542.26L530,91.36h-.19v55H517.07Z"/><path class="cls-1" d="M599.21,122.44v4.15c0,6.08,1.64,12.07,6.56,12.07,4.44,0,6.27-3.38,7-9.75h12c-.48,12.07-6.27,18.82-18.82,18.82-19.3,0-20.08-14.87-20.08-27.8,0-13.9,2.7-26.83,20.66-26.83,15.54,0,19,10.42,19,26.35v3Zm13.61-7.92c-.29-7.92-1.25-12.36-6.76-12.36-5.31,0-6.85,5.5-6.85,10.33v2Z"/><path class="cls-1" d="M632.51,94.45h12.74v6.08h.19c2.8-5.12,7.63-7.43,13.22-7.43,8.3,0,13.22,4.54,13.22,14.77v38.51H658.57V110.57c0-5.21-1.74-7.24-5.7-7.24-4.54,0-7,2.8-7,8.59v34.46H632.51Z"/><path class="cls-1" d="M683.66,79.58H697V94.45h7.72v9.07H697v28.09c0,4.05.87,5.69,4.73,5.69a27.5,27.5,0,0,0,3-.19v9.27A83.91,83.91,0,0,1,696,147c-10.42,0-12.36-3.19-12.36-13.71V103.52h-6.76V94.45h6.76Z"/><path class="cls-1" d="M728.06,93.1c16-.29,20.46,9.27,20.46,27.32,0,17.76-5.21,27.32-20.46,27.32-16,.29-20.46-9.27-20.46-27.32C707.6,102.65,712.81,93.1,728.06,93.1Zm0,45.56c5.41,0,7.14-5.31,7.14-18.24s-1.74-18.24-7.14-18.24c-6.56,0-7.14,7.63-7.14,18.24S721.5,138.66,728.06,138.66Z"/><path class="cls-1" d="M755.67,94.45h12.74v7h.19c2.7-5,6.47-8.3,12-8.3a20.3,20.3,0,0,1,2.41.19V106c-1.35-.1-2.8-.19-4.15-.19-4.63,0-9.85,2.41-9.85,9.36v31.18H755.67Z"/></svg>